<?xml version="1.0" standalone="no"?>
<!DOCTYPE svg PUBLIC "-//W3C//DTD SVG 20010904//EN"
 "http://www.w3.org/TR/2001/REC-SVG-20010904/DTD/svg10.dtd">
<svg version="1.0" xmlns="http://www.w3.org/2000/svg"
 width="500.000000pt" height="500.000000pt" viewBox="0 0 500.000000 500.000000"
 preserveAspectRatio="xMidYMid meet">
<metadata>
Created by potrace 1.14, written by Peter Selinger 2001-2017
</metadata>
<g transform="translate(0.000000,500.000000) scale(0.100000,-0.100000)"
fill="#000000" stroke="none">
<path d="M2422 4484 c-25 -10 -32 -19 -33 -41 -3 -87 -3 -1813 0 -1837 3 -20
12 -32 34 -41 41 -17 78 -5 195 65 51 30 100 60 110 65 9 6 56 34 103 63 48
28 92 52 98 52 6 0 11 5 11 10 0 6 5 10 10 10 6 0 29 12 53 27 23 15 51 32 62
38 47 26 70 41 83 53 7 6 20 12 28 12 8 0 14 4 14 8 0 5 18 17 40 27 22 10 40
22 40 27 0 4 4 8 9 8 13 0 205 112 209 122 2 4 7 8 12 8 12 0 184 103 188 112
2 5 8 8 13 8 6 0 56 28 112 62 56 33 118 70 138 81 73 39 90 59 91 103 0 23
-3 50 -6 60 -7 20 -101 84 -123 84 -7 0 -13 5 -13 10 0 6 -4 10 -9 10 -5 0
-55 27 -110 60 -56 33 -106 60 -111 60 -6 0 -10 5 -10 10 0 6 -4 10 -10 10 -5
0 -47 23 -94 50 -47 28 -89 50 -95 50 -5 0 -11 4 -13 8 -3 7 -35 27 -149 90
-71 40 -84 47 -89 53 -3 3 -21 13 -40 22 -37 19 -72 39 -80 47 -3 3 -21 14
-40 25 -19 10 -53 29 -75 42 -22 12 -47 26 -55 30 -8 3 -17 9 -20 12 -3 4 -23
15 -45 26 -22 11 -42 22 -45 25 -5 6 -150 89 -215 124 -22 11 -43 25 -46 29
-3 4 -26 14 -50 21 -38 12 -50 12 -77 0z"/>
<path d="M1658 3362 c-16 -2 -28 -8 -28 -13 0 -5 -4 -9 -9 -9 -12 0 -81 -69
-81 -81 0 -5 -4 -9 -8 -9 -9 0 -232 -220 -232 -229 -1 -3 -19 -19 -40 -36 -21
-16 -39 -36 -40 -42 0 -7 -4 -13 -8 -13 -10 0 -232 -221 -232 -231 0 -4 -4 -9
-10 -11 -13 -4 -150 -138 -150 -146 -1 -4 -19 -20 -40 -37 -21 -16 -39 -35
-40 -42 0 -6 -4 -13 -10 -15 -12 -4 -230 -218 -230 -227 -1 -3 -19 -19 -40
-36 -21 -16 -39 -33 -40 -37 0 -4 -20 -26 -44 -48 -52 -48 -61 -81 -34 -115
30 -38 62 -50 238 -90 8 -2 15 -4 15 -5 0 -2 16 -6 55 -14 77 -17 126 -31 134
-38 6 -4 24 -8 41 -8 18 0 35 -3 39 -7 3 -4 13 -8 21 -9 8 -1 44 -10 81 -19
37 -9 75 -18 83 -20 24 -5 277 -71 346 -90 33 -9 69 -18 80 -20 11 -2 38 -9
60 -15 64 -17 78 -21 105 -26 14 -3 43 -10 65 -16 44 -13 49 -14 85 -21 14 -3
70 -18 125 -32 55 -15 109 -29 120 -32 75 -20 91 -16 128 28 21 23 37 47 37
53 0 6 -12 54 -26 106 -14 52 -27 102 -29 110 -8 36 -25 102 -49 187 -14 51
-28 103 -30 115 -2 13 -9 35 -14 49 -6 14 -13 39 -16 55 -3 16 -21 88 -41 159
-20 72 -38 141 -41 155 -3 14 -18 70 -34 126 -16 55 -31 109 -33 120 -1 10 -6
25 -10 32 -5 6 -6 12 -3 12 3 0 1 11 -4 25 -5 14 -12 36 -14 48 -3 12 -12 47
-21 77 -8 30 -18 66 -21 80 -3 14 -14 54 -24 90 -10 36 -21 76 -24 90 -15 81
-57 128 -108 122z"/>
<path d="M3283 2496 c-29 -28 -46 -76 -82 -231 -17 -71 -36 -145 -42 -163 -6
-18 -12 -42 -13 -55 -2 -12 -6 -29 -9 -37 -5 -15 -46 -169 -52 -199 -2 -9 -11
-45 -20 -81 -10 -36 -18 -69 -19 -75 -1 -5 -5 -19 -9 -30 -3 -11 -8 -31 -11
-45 -2 -14 -14 -63 -26 -109 -12 -47 -23 -90 -24 -95 -1 -6 -5 -17 -9 -23 -5
-7 -6 -13 -3 -13 2 0 -4 -33 -16 -72 -22 -79 -97 -378 -104 -417 -3 -14 -7
-28 -10 -33 -3 -4 -8 -28 -11 -54 -5 -40 -2 -49 23 -76 44 -46 58 -48 178 -16
61 16 122 31 135 34 13 3 32 9 43 15 10 5 18 7 18 5 0 -3 18 1 40 9 22 8 40
12 40 10 0 -2 18 2 40 10 22 8 42 14 45 15 3 0 6 0 8 1 3 1 30 7 52 12 37 9
209 56 258 71 26 8 47 12 47 10 0 -2 12 1 28 7 15 6 36 13 47 15 37 7 58 13
335 88 151 41 286 77 300 80 93 20 167 48 188 71 50 58 73 30 -609 711 -347
346 -639 638 -650 648 -10 11 -19 23 -19 26 0 16 -67 5 -87 -14z"/>
</g>
</svg>
